<svg xmlns="http://www.w3.org/2000/svg" width="24" height="24" viewBox="0 0 24 24">
    <g fill="#444" fill-rule="evenodd" transform="translate(.255)">
        <circle cx="18.769" cy="20.341" r="2.749" transform="rotate(-45 18.769 20.341)"/>
        <path d="M23.1 5.654H5.812l-.607-3.052C4.917 1.1 3.585.01 2.037.01H.55a.55.55 0 1 0 0 1.1h1.487c1.038 0 1.896.699 2.088 1.703l2.223 11.182a2.757 2.757 0 0 0 2.697 2.214h10.026a2.751 2.751 0 0 0 2.662-2.063l1.901-7.812a.55.55 0 0 0-.534-.68z"/>
        <circle cx="9.274" cy="20.339" r="2.748" transform="rotate(-13.286 9.274 20.34)"/>
    </g>
</svg>
