<svg xmlns="http://www.w3.org/2000/svg" width="24" height="24" viewBox="0 0 24 24">
    <g fill="#444" fill-rule="evenodd">
        <path d="M6.41 7.751l4.676 2.152c.614.283 1.62.283 2.235 0l3.945-1.816 6.47-3.085a2.308 2.308 0 0 0-.422-.261L13.882.398c-.921-.424-2.43-.424-3.353 0L1.094 4.741c-.15.069-.293.164-.432.27L6.41 7.75zM11.753 12.119c0-.678-.503-1.462-1.118-1.746L3.514 7.097c-.006-.003-.011-.008-.017-.01L.277 5.601v11.072c0 1.016.755 2.194 1.677 2.619l9.435 4.343c.084.04.177.07.27.101l.093-5.764v-5.854zM20.594 7.056c-.013.007-.024.016-.038.023l-7.123 3.278c-.615.282-1.117 1.068-1.117 1.745v4.822h.014l-.022 6.835c.133-.04.259-.088.375-.141l9.434-4.344c.922-.424 1.677-1.602 1.677-2.618L23.793 5.58l-3.2 1.476z"/>
    </g>
</svg>
