<svg xmlns="http://www.w3.org/2000/svg" width="40" height="40" viewBox="0 0 40 40">
    <g fill="none" fill-rule="evenodd">
        <path fill="#FDFDFF" d="M-770-1583H670V9969H-770z"/>
        <g fill-rule="nonzero">
            <circle cx="20" cy="20" r="20" fill="#86BB43"/>
            <path fill="#FFF" d="M23.038 20l2.678 2.76c.349-.84.465-1.8.465-2.76 0-.96-.232-1.92-.465-2.76L23.038 20zm6.17-6.36l-1.397 1.56c.699 1.44 1.164 3.12 1.164 4.8 0 1.68-.465 3.36-1.164 4.8l1.397 1.44c1.164-1.8 1.746-4.08 1.746-6.36 0-2.28-.582-4.44-1.746-6.24zm-4.424 1.2L18.15 8h-1.164v9.12L11.63 11.6 10 13.28 16.52 20 10 26.72l1.63 1.68 5.355-5.52V32h1.164l6.635-6.84L19.78 20l5.005-5.16zm-5.471-2.28l2.212 2.28-2.212 2.28v-4.56zm2.212 12.6l-2.212 2.28v-4.56l2.212 2.28z"/>
        </g>
    </g>
</svg>
