<svg xmlns="http://www.w3.org/2000/svg" width="40" height="40" viewBox="0 0 40 40">
    <g fill="none" fill-rule="nonzero">
        <circle cx="20" cy="20" r="20" fill="#86BB43"/>
        <g fill="#FFF" stroke="#FFF">
            <path d="M20.726 19.68V8.675A.68.68 0 0 0 20.033 8a.68.68 0 0 0-.692.674V19.68c-1.605.314-2.82 1.696-2.82 3.353 0 1.656 1.215 3.038 2.82 3.353v4.9a.68.68 0 0 0 .692.673.68.68 0 0 0 .693-.674v-4.9c1.605-.314 2.82-1.696 2.82-3.352 0-1.652-1.21-3.039-2.82-3.353zm-.693 5.424c-1.174 0-2.128-.928-2.128-2.07 0-1.143.954-2.071 2.128-2.071 1.175 0 2.129.928 2.129 2.07 0 1.143-.954 2.071-2.129 2.071zM12.249 14.032V8.674A.68.68 0 0 0 11.556 8a.68.68 0 0 0-.692.674v5.358c-1.605.315-2.82 1.697-2.82 3.353 0 1.657 1.215 3.04 2.82 3.353v10.548a.68.68 0 0 0 .692.674.68.68 0 0 0 .693-.674V20.733c1.605-.314 2.82-1.696 2.82-3.353 0-1.656-1.215-3.033-2.82-3.348zm-.693 5.424c-1.174 0-2.128-.928-2.128-2.07 0-1.143.954-2.071 2.128-2.071 1.175 0 2.129.928 2.129 2.07 0 1.143-.96 2.071-2.129 2.071zM29.151 14.032V8.674A.68.68 0 0 0 28.46 8a.68.68 0 0 0-.692.674v5.358c-1.605.315-2.82 1.697-2.82 3.353 0 1.657 1.215 3.04 2.82 3.353v10.553a.68.68 0 0 0 .692.674.68.68 0 0 0 .692-.674V20.733c1.605-.314 2.82-1.696 2.82-3.353 0-1.656-1.21-3.033-2.82-3.348zm-.692 5.424c-1.174 0-2.128-.928-2.128-2.07 0-1.143.954-2.071 2.128-2.071 1.174 0 2.128.928 2.128 2.07 0 1.143-.954 2.071-2.128 2.071z"/>
        </g>
    </g>
</svg>
