<svg xmlns="http://www.w3.org/2000/svg" width="40" height="40" viewBox="0 0 40 40">
    <g fill="none" fill-rule="evenodd">
        <path fill="#FDFDFF" d="M-770-2865H670V8687H-770z"/>
        <g>
            <circle cx="20" cy="20" r="20" fill="#86BB43" fill-rule="nonzero"/>
            <g fill="#FFF" stroke="#FFF">
                <path fill-rule="nonzero" d="M32.293 18.018c-.91-2.423-2.608-4.109-4.783-4.747-2.097-.616-4.377-.171-6.412 1.215a6.684 6.684 0 0 0-.817-2.086 4.73 4.73 0 0 0 2.815-1.316 4.54 4.54 0 0 0 1.212-4.43.712.712 0 0 0-.51-.5 4.761 4.761 0 0 0-4.52 1.188 4.56 4.56 0 0 0-1.337 2.708 7.014 7.014 0 0 0-3.657-1.02.712.712 0 0 0-.72.704c0 .39.323.706.72.706 2.465 0 4.558 1.594 5.26 3.785-1.942-1.203-4.078-1.563-6.054-.983-2.175.638-3.874 2.324-4.783 4.747-.883 2.352-.915 5.133-.091 7.83.824 2.696 2.41 5.002 4.467 6.49 2.119 1.535 4.484 2.028 6.659 1.39.245-.072.488-.16.725-.26a6.72 6.72 0 0 0 2.69.56c1.605 0 3.245-.564 4.76-1.66 2.056-1.49 3.643-3.795 4.467-6.492.824-2.697.792-5.477-.09-7.829zm-12.92-7.027a3.15 3.15 0 0 1 .922-2.651 3.295 3.295 0 0 1 2.706-.905 3.15 3.15 0 0 1-.923 2.652 3.295 3.295 0 0 1-2.706.904zm11.632 14.452c-.735 2.406-2.136 4.452-3.943 5.761-1.746 1.264-3.66 1.68-5.391 1.173a5.16 5.16 0 0 1-.87-.345.732.732 0 0 0-.652-.004c-.264.13-.54.237-.82.32-3.65 1.072-7.839-2.04-9.335-6.934-1.496-4.895.258-9.75 3.909-10.821 1.99-.584 4.223.06 6.128 1.768a.725.725 0 0 0 .996-.021c1.892-1.67 4.103-2.296 6.07-1.718 3.651 1.071 5.405 5.926 3.908 10.82z"/>
                <path d="M16.066 16.94a.722.722 0 0 0-.896-.474c-1.535.451-2.76 1.793-3.361 3.681-.578 1.818-.551 3.95.077 6.005a.718.718 0 0 0 .896.473.703.703 0 0 0 .482-.878c-.538-1.762-.568-3.65-.081-5.18.462-1.455 1.315-2.431 2.4-2.75a.703.703 0 0 0 .483-.878z"/>
            </g>
        </g>
    </g>
</svg>
