<svg xmlns="http://www.w3.org/2000/svg" width="40" height="40" viewBox="0 0 40 40">
    <g fill="none" fill-rule="nonzero">
        <circle cx="20" cy="20" r="20" fill="#86BB43"/>
        <g fill="#FFF">
            <path d="M27.825 33.61c.185-.253.224-.58.105-.9l-2.093-5.663c-.182-.49-.68-.843-1.186-.843h-8.208c-.506 0-1.004.354-1.186.843l-2.094 5.663c-.118.32-.08.648.106.9a.944.944 0 0 0 .77.373h13.014a.946.946 0 0 0 .772-.373zM14.587 32.7l1.936-5.216h8.056l1.929 5.216H14.587zM25.703 9.479H15.391a.899.899 0 0 0-.72.344.955.955 0 0 0-.154.827l1.335 13.746.026.128c.162.504.632.87 1.12.87h7.1c.486 0 .956-.366 1.118-.87l1.361-13.875a.956.956 0 0 0-.153-.826.902.902 0 0 0-.72-.344zm-1.777 14.634h-6.759l-.346-3.564h2.31c.37 0 .67-.287.67-.641 0-.354-.3-.64-.67-.64h-2.434l-.14-1.431h2.574c.37 0 .669-.287.669-.641 0-.354-.3-.641-.669-.641h-2.698l-.14-1.43h2.838c.37 0 .669-.288.669-.641 0-.354-.3-.641-.669-.641H16.17l-.3-3.082h9.353l-1.297 13.352z"/>
            <path d="M20.547 28.184c-1.099 0-1.992.856-1.992 1.91 0 1.052.893 1.908 1.992 1.908 1.098 0 1.992-.856 1.992-1.909s-.894-1.909-1.992-1.909zm0 2.536c-.36 0-.655-.282-.655-.627 0-.347.294-.628.655-.628.36 0 .655.281.655.628 0 .346-.295.627-.655.627zM14.484 8.436c0 .354.3.641.669.641H25.94c.37 0 .669-.287.669-.64 0-.354-.3-.642-.669-.642h-2.88c.016-.084.028-.168.028-.257 0-.848-.72-1.538-1.605-1.538H19.61c-.885 0-1.605.69-1.605 1.539 0 .088.012.172.027.257h-2.88a.655.655 0 0 0-.668.64zm4.858-.897c0-.142.12-.257.268-.257h1.874c.147 0 .268.115.268.257 0 .141-.12.257-.268.257H19.61a.263.263 0 0 1-.268-.257z"/>
        </g>
    </g>
</svg>
