<svg xmlns="http://www.w3.org/2000/svg" width="40" height="40" viewBox="0 0 40 40">
    <g fill="none" fill-rule="evenodd">
        <circle cx="20" cy="20" r="20" fill="#86BB43" fill-rule="nonzero"/>
        <g fill="#FFF">
            <path fill-rule="nonzero" stroke="#FFF" d="M30.978 14.036c-1.636 0-2.967 1.3-2.967 2.897 0 .582.178 1.125.482 1.58l-3.206 3.128a3 3 0 0 0-1.618-.47 3 3 0 0 0-1.669.503l-3.238-3.162a2.83 2.83 0 0 0 .481-1.58c0-1.596-1.33-2.896-2.967-2.896-1.636 0-2.967 1.3-2.967 2.897 0 .582.178 1.124.482 1.579l-3.206 3.13a3 3 0 0 0-1.618-.471C7.331 21.17 6 22.47 6 24.067c0 1.597 1.331 2.897 2.967 2.897 1.636 0 2.967-1.3 2.967-2.897a2.83 2.83 0 0 0-.482-1.58l3.206-3.128a3 3 0 0 0 1.618.47 3 3 0 0 0 1.618-.47l3.257 3.179a2.828 2.828 0 0 0-.449 1.53c0 1.596 1.331 2.896 2.967 2.896 1.636 0 2.967-1.3 2.967-2.897a2.83 2.83 0 0 0-.481-1.579l3.205-3.13a3 3 0 0 0 1.618.471c1.636 0 2.967-1.3 2.967-2.896 0-1.598-1.33-2.897-2.967-2.897zm-22.01 11.73c-.96 0-1.742-.762-1.742-1.699s.781-1.699 1.741-1.699c.96 0 1.74.762 1.74 1.7 0 .936-.78 1.699-1.74 1.699zm7.308-7.134c-.96 0-1.74-.762-1.74-1.7 0-.936.78-1.699 1.74-1.699s1.741.763 1.741 1.7c0 .937-.78 1.699-1.74 1.699zm7.393 7.135c-.96 0-1.74-.763-1.74-1.7 0-.937.78-1.699 1.74-1.699s1.74.762 1.74 1.7c0 .936-.78 1.699-1.74 1.699zm7.31-7.135c-.96 0-1.742-.762-1.742-1.7 0-.936.781-1.699 1.741-1.699.96 0 1.741.763 1.741 1.7 0 .937-.781 1.699-1.74 1.699z"/>
            <path d="M15.648 21.39a.624.624 0 0 0-.867 0l-1.247 1.218a.589.589 0 0 0 0 .847c.12.117.277.175.434.175a.62.62 0 0 0 .433-.175l1.247-1.218a.588.588 0 0 0 0-.846zM26.411 17.566a.624.624 0 0 0-.867 0l-1.248 1.218a.589.589 0 0 0 0 .847.62.62 0 0 0 .434.175.62.62 0 0 0 .434-.175l1.247-1.218a.589.589 0 0 0 0-.847z"/>
        </g>
    </g>
</svg>
