<svg xmlns="http://www.w3.org/2000/svg" width="28" height="28" viewBox="0 0 28 28">
    <g fill="none" fill-rule="evenodd">
        <path d="M0 0h28v28H0z"/>
        <circle cx="14" cy="14" r="13.5" stroke="#444"/>
        <path fill="#444" d="M20.957 10.44c.02.017.027.045.013.068l-4.244 6.897-3.051-4.958 2.431-3.952a.484.484 0 0 1 .615-.175l4.223 2.112.005.002.008.007zm-8.621 1.107l3.997 6.496-3.997-1.999v-4.497zm4.598 6.796L21 11.736v7.918c0 .399-.347.549-.775.335l-3.291-1.646zm-5.292-7.896a.045.045 0 0 1 .025.04v9.167c0 .293-.159.468-.384.468a.59.59 0 0 1-.262-.069l-3.633-1.816A.77.77 0 0 1 7 17.61V8.704c0-.234.127-.374.307-.374.064 0 .135.018.21.055l4.125 2.062z"/>
    </g>
</svg>
